<svg width="24" height="24" viewBox="0 0 173.333 173.333" xmlns="http://www.w3.org/2000/svg">
  <path d="M164.277 91.043c-1.853-1.018-5.655-2.568-10.638-4.366 4.983-1.798 8.775-3.337 10.628-4.355 11.007-5.948 12.144-23.4 2.546-38.978-9.609-15.568-26.314-23.368-37.31-17.431-1.874 1.029-5.2 3.315-9.371 6.467.845-4.962 1.289-8.818 1.289-10.833 0-11.917-15.568-21.558-34.753-21.558S51.893 9.631 51.893 21.547c0 2.015.466 5.861 1.311 10.812a98 98 0 0 0-9.349-6.457C32.847 19.955 16.12 27.755 6.533 43.333s-8.439 33.02 2.546 38.968c1.874 1.029 5.655 2.578 10.671 4.377-5.016 1.809-8.818 3.358-10.682 4.377-11.007 5.948-12.144 23.378-2.546 38.968 9.598 15.568 26.314 23.368 37.31 17.42 1.874-1.008 5.189-3.293 9.371-6.446-.845 4.951-1.311 8.775-1.311 10.801 0 11.906 15.557 21.547 34.775 21.547 19.186 0 34.753-9.642 34.753-21.547 0-2.026-.444-5.872-1.289-10.844 4.171 3.174 7.508 5.471 9.382 6.478 11.007 5.948 27.712-1.842 37.299-17.409 9.609-15.589 8.461-33.031-2.535-38.978m-77.61 28.633a33.009 33.009 0 1 1 0-65.997 33.04 33.04 0 0 1 33.031 32.996 33.04 33.04 0 0 1-33.031 32.999" fill="#A0BCFE" fill-rule="evenodd"/>
</svg>